<svg xmlns="http://www.w3.org/2000/svg" width="480" height="376" viewBox="0 0 480 376" font-family='ui-monospace, &quot;SF Mono&quot;, Menlo, Monaco, &quot;Cascadia Mono&quot;, &quot;Roboto Mono&quot;, monospace'><rect width="480" height="376" rx="12" fill="#0a0a0a"/><rect x="0.5" y="0.5" width="479" height="375" rx="12" fill="none" stroke="rgba(255,255,255,0.08)"/><line x1="0" y1="30" x2="480" y2="30" stroke="rgba(255,255,255,0.08)"/><circle cx="20" cy="15.0" r="5" fill="#ff5f57"/><circle cx="36" cy="15.0" r="5" fill="#febc2e"/><circle cx="52" cy="15.0" r="5" fill="#28c840"/><text x="240.0" y="19.0" fill="rgba(237,237,237,0.5)" font-size="12" text-anchor="middle">lukaadzic@github: ~$ neofetch</text><g><text x="20" y="60.0" font-size="14" font-weight="700"><tspan fill="#5fd75f">lukaadzic</tspan><tspan fill="rgba(237,237,237,0.5)">@</tspan><tspan fill="#a9b8c4">github</tspan></text><line x1="156" y1="56.0" x2="460" y2="56.0" stroke="rgba(255,255,255,0.08)" stroke-opacity="0.8"/></g><g><text x="20" y="80.5" fill="rgba(95,215,95,0.7)" font-size="12.5" font-weight="700">Now</text><text x="112" y="80.5" fill="#ededed" font-size="12.5">SWE @ C4R</text></g><g><text x="20" y="101.0" fill="rgba(95,215,95,0.7)" font-size="12.5" font-weight="700">Research</text><text x="112" y="101.0" fill="#ededed" font-size="12.5">Agentic systems for statistical genetics</text></g><g><text x="20" y="121.5" fill="rgba(95,215,95,0.7)" font-size="12.5" font-weight="700">Edu</text><text x="112" y="121.5" fill="#ededed" font-size="12.5">Wharton, UPenn</text></g><g><text x="20" y="142.0" fill="rgba(95,215,95,0.7)" font-size="12.5" font-weight="700">Base</text><text x="112" y="142.0" fill="#ededed" font-size="12.5">Philadelphia, PA</text></g><g><text x="20" y="172.8" fill="#a9b8c4" font-size="12.5" font-weight="700">&#8212; Stack</text><line x1="72" y1="168.8" x2="460" y2="168.8" stroke="rgba(255,255,255,0.08)" stroke-opacity="0.8"/></g><g><text x="20" y="193.2" fill="rgba(95,215,95,0.7)" font-size="12.5" font-weight="700">Frontend</text><text x="112" y="193.2" fill="#ededed" font-size="12.5">React, Next.js, TypeScript</text></g><g><text x="20" y="213.8" fill="rgba(95,215,95,0.7)" font-size="12.5" font-weight="700">Backend</text><text x="112" y="213.8" fill="#ededed" font-size="12.5">Python, MongoDB, MATLAB</text></g><g><text x="20" y="234.2" fill="rgba(95,215,95,0.7)" font-size="12.5" font-weight="700">AI / ML</text><text x="112" y="234.2" fill="#ededed" font-size="12.5">NLP, OpenCV, agentic pipelines</text></g><g><text x="20" y="254.8" fill="rgba(95,215,95,0.7)" font-size="12.5" font-weight="700">Quant</text><text x="112" y="254.8" fill="#ededed" font-size="12.5">Financial modeling, algo trading</text></g><g><text x="20" y="285.5" fill="#a9b8c4" font-size="12.5" font-weight="700">&#8212; Highlights</text><line x1="112" y1="281.5" x2="460" y2="281.5" stroke="rgba(255,255,255,0.08)" stroke-opacity="0.8"/></g><g><circle cx="23" cy="302.0" r="2.5" fill="#5fd75f"/><text x="34" y="306.0" fill="#ededed" font-size="12.5">Live algo trading system, 22% return in two months</text></g><g><circle cx="23" cy="322.5" r="2.5" fill="#5fd75f"/><text x="34" y="326.5" fill="#ededed" font-size="12.5">Bubble detection dashboard built on options data</text></g><g><circle cx="23" cy="343.0" r="2.5" fill="#5fd75f"/><text x="34" y="347.0" fill="#ededed" font-size="12.5">Founded Maritime Penn Club, 100+ members</text></g></svg>