<svg width="126" height="57" viewBox="0 0 126 57" fill="none" xmlns="http://www.w3.org/2000/svg">
<path d="M76.375 1.42685C77.7031 2.18726 78.3125 2.8956 79.1042 4.20289C79.8542 6.46331 79.8333 8.41122 79.3854 10.755C78.5365 14.0206 77.2604 16.5883 74.8906 19.005C71.5729 21.7602 67.6719 22.8018 63.5104 23.5987C59.9635 23.9633 56.3438 23.8018 52.7813 23.7602C51.7292 29.1977 50.9531 34.6716 50.151 40.1508L51.276 40.13C54.9531 40.0987 58.5885 40.2133 62.2604 40.4112L64.9844 40.5414C66.5156 40.6143 68.0208 40.7289 69.5521 40.88C71.2656 41.005 72.6823 41.0362 74.3646 40.6768C76.3594 39.406 77.6667 37.781 79.1042 35.9216L80.3958 34.3696C85.3385 28.3435 89.5677 21.2498 91.7396 13.7185C91.9063 12.005 91.8438 10.6664 91.5729 8.98414C91.276 7.02581 91.224 5.73414 91.6042 3.73935L92.2656 2.08831L93.8438 1.03102L94.8958 2.08831C95.0156 3.21851 95.0156 3.21851 94.9948 4.56747L94.9792 6.01539C94.8958 7.37476 94.8958 7.37476 94.4375 9.15601C94.3646 11.2758 94.7344 12.2133 95.6198 14.1143C97.4427 17.5102 99.724 20.3539 102.266 23.2341L103.422 24.5675C108.307 30.13 113.427 34.9946 119.286 39.4737C120.609 40.4946 121.922 41.5206 123.224 42.5623L124.484 43.5518C125.427 44.38 125.427 44.38 125.953 45.4373C117.365 42.9737 109.141 33.6039 103.052 27.3331C99.9271 24.0206 97.026 20.4633 94.8229 16.4581L93.8438 14.7758L92.7917 14.2446L92.4115 16.3175C91.7969 19.0831 90.7031 21.4112 89.3698 23.8956L88.6667 25.2133C85.375 31.2393 81.0469 36.1404 76.474 41.2081L77.3958 41.2706C93.0885 42.3956 108.745 43.6352 124.375 45.4373V45.9633C119.385 46.0414 114.458 45.8539 109.484 45.4737C108.281 45.3852 107.078 45.2914 105.875 45.2081C103.323 45.0206 100.771 44.8331 98.2188 44.6404C95.25 44.4216 92.2865 44.2029 89.3177 43.9841C88.1458 43.9008 86.9688 43.8123 85.7969 43.7237C82.6458 43.4894 79.4948 43.2758 76.3385 43.1821L75.0156 43.1404C73.776 43.2446 73.776 43.2446 72.6771 44.0935C72 44.7029 71.3385 45.3383 70.6979 45.9894C68.0677 48.5206 64.7083 50.3019 61.2031 51.2498C56.7031 51.6352 52.7448 51.4268 48.5729 49.6612L48.4375 51.6456C48.2969 52.8123 48.2969 52.8123 48.0469 53.8904C47.0573 55.1821 47.0573 55.1821 45.9375 56.005C43.4635 56.8331 41.151 56.8123 38.5677 56.5362C32.25 54.8227 27.2917 50.6144 22.7448 46.0623C19.75 42.9998 19.75 42.9998 18.5625 41.2081V40.1508L0.666667 39.6196L0.140625 38.0362C5.77604 37.9529 11.3594 38.2029 16.9844 38.5623L16.4479 37.5935C14.8385 34.5518 13.4115 31.4893 13.3021 27.9893L14.3542 26.406C15.474 26.505 15.474 26.505 16.9844 26.9321C18.0573 27.7446 19.0885 28.6039 20.0781 29.5102C22.6354 31.755 25.2344 33.9216 27.9427 35.9841L28.8958 36.7446C30.5313 37.9737 31.6302 38.5414 33.6719 38.9685C34.4271 39.0206 35.1823 39.0623 35.9375 39.0935L37.4063 39.1768C39.0208 39.2602 40.6354 39.3279 42.2552 39.3904L43.9479 39.4581C45.3125 39.5154 46.6771 39.5675 48.0469 39.6196L48.276 38.3904C48.6302 36.5518 48.9792 34.7185 49.3281 32.88L49.6927 30.9477L50.0521 29.0883L50.375 27.38C50.6198 26.1612 50.8906 24.9633 51.2031 23.7602L50.2604 23.7081C36.2604 22.8331 24.3073 19.5883 12.526 11.8175C7.59375 8.47893 7.59375 8.47893 5.93229 6.84351V5.78622C8.18229 6.26018 9.79687 7.42685 11.6563 8.72893C21.5208 15.4477 31.8073 20.2758 43.8021 21.5154C46.4427 21.6873 49.0833 21.6873 51.7292 21.6456L52.5208 19.8487C55.4531 13.3123 58.5781 8.08831 64.3646 3.67164C68.1302 1.36435 71.9948 0.254971 76.375 1.42685ZM61.8281 7.7706C58.1354 11.2446 55.5417 15.8383 53.8333 20.5883V22.1768C62.5573 22.5102 62.5573 22.5102 70.8177 20.005C73.1979 18.6352 74.9063 17.0675 76.474 14.7758C77.6042 12.6091 78.1667 10.5102 78.3125 8.06747C78.2344 6.30185 78.026 5.74456 77.0625 4.16643C75.4688 3.17685 74.8229 2.91643 73.0156 2.78102C68.8438 2.99976 65.0625 5.22372 61.8281 7.7706ZM14.8802 28.5206C15.5104 32.0883 16.3125 35.6404 18.5677 38.5623C20.2865 39.0987 21.0573 39.1873 22.776 39.0935C23.8281 39.0987 24.8802 39.1143 25.9375 39.1248C26.8125 39.1143 27.6875 39.1039 28.5677 39.0935C24.8073 35.2237 20.4844 31.4373 15.9323 28.5206H14.8802ZM20.1458 40.1508C22.8906 45.1248 27.474 48.8435 32.25 51.7758C35.3854 53.6196 38.0677 54.8904 41.7292 54.9477C43.5156 54.5987 44.8802 54.2498 46.401 53.2341C47.2292 51.9373 47.2969 50.6404 47.5208 49.1352L46.6927 48.755C41.8802 46.5466 37.1719 44.3748 32.7969 41.3696C31.5573 40.5675 30.526 40.1716 29.0469 40.0883L27.8021 40.0987L26.4531 40.1039L25.0469 40.1143L23.625 40.1248C22.4635 40.13 21.3021 40.1352 20.1458 40.1508ZM34.8854 40.6768C36.599 42.4477 38.4688 43.5102 40.6094 44.7081L41.7396 45.3591C43.6302 46.4269 45.3125 47.3748 47.5208 47.5519L48.0469 47.0206C48.1927 45.7966 48.2813 44.5675 48.3698 43.3383L48.5729 42.2654L49.625 41.7341L49.3594 42.7914C49.0313 44.7654 49.0625 46.6091 49.099 48.6039C52.6615 49.9164 56.349 50.5831 60.151 50.1925C64.5833 48.9529 68.75 46.2862 72.2604 43.3227V42.2654C68.474 42.0518 64.6927 41.8487 60.9063 41.6404C59.1458 41.5466 57.3906 41.4529 55.6302 41.3539C53.599 41.2446 51.5677 41.13 49.5365 41.0258L47.6615 40.9164C43.401 40.6925 39.151 40.6404 34.8854 40.6768Z" fill="#0E0E0E"/>
</svg>
